<?xml version="1.0" encoding="UTF-8"?>
<svg id="Layer_1" data-name="Layer 1" xmlns="http://www.w3.org/2000/svg" baseProfile="tiny" version="1.2" viewBox="0 0 405.33 160">
  <polygon points="199.16 112.42 222.82 112.42 241.23 78.67 260.07 112.42 284.62 112.42 241.89 37.96 199.16 112.42" fill="#fff" stroke-width="0"/>
  <polygon points="12.89 112.42 36.56 112.42 54.96 78.67 73.81 112.42 98.35 112.42 55.62 37.96 12.89 112.42" fill="#fff" stroke-width="0"/>
  <polygon points="90.03 112.42 113.69 112.42 132.1 78.67 150.95 112.42 175.49 112.42 132.76 37.96 90.03 112.42" fill="#c3d3ee" stroke-width="0"/>
  <polygon points="120.71 112.42 144.37 112.42 162.78 78.67 181.62 112.42 206.17 112.42 163.44 37.96 120.71 112.42" fill="#c3d3ee" stroke-width="0"/>
  <polyline points="286.37 37.96 286.37 112.42 356.49 112.42 356.49 92.26 307.41 92.26 307.41 37.96 286.37 37.96" fill="#fff" stroke-width="0"/>
  <polyline points="368.33 37.96 368.33 112.42 389.36 112.42 389.36 37.96 368.33 37.96" fill="#fff" stroke-width="0"/>
  <polygon points="380.71 12.06 392.44 21.38 380.59 36.8 368.74 27.88 380.71 12.06" fill="#fff" stroke-width="0"/>
  <g>
    <path d="M223.57,121.65v20.48c0,2.32.84,4.04,3.07,4.04s3.05-1.49,3.05-4.01v-20.52h1.94v20.41c0,3.96-1.77,5.89-5.04,5.89s-4.93-1.87-4.93-5.79v-20.5h1.91Z" fill="#fff" stroke-width="0"/>
    <path d="M235.59,147.62v-25.97h2.37c1.65,5.6,5.62,19.76,6.15,22.4h.07c-.13-3.7-.19-7.35-.19-11.56v-10.83h1.85v25.97h-2.31c-1.77-6.1-5.68-20.43-6.33-23.17h-.04c.16,3.12.29,7.7.29,12.4v10.77h-1.86Z" fill="#fff" stroke-width="0"/>
    <path d="M251.81,121.65v25.97h-1.91v-25.97h1.91Z" fill="#fff" stroke-width="0"/>
    <path d="M265.56,127.67v13.75c0,4.28-1.72,6.52-5.22,6.52-3.88,0-5.06-2.67-5.06-6.51v-13.74c0-4.02,1.66-6.38,5.2-6.38,3.77,0,5.08,2.86,5.08,6.35ZM257.23,127.73v13.76c0,3.45,1.25,4.71,3.2,4.71s3.18-1.25,3.18-4.88v-13.57c0-3.24-1.17-4.68-3.21-4.68-2.17,0-3.17,1.4-3.17,4.66ZM265.54,115.97l-4.34,3.83h-1.95l3.77-3.83h2.52Z" fill="#fff" stroke-width="0"/>
    <path d="M269.15,147.62v-25.97h2.37c1.65,5.6,5.62,19.76,6.15,22.4h.07c-.13-3.7-.19-7.35-.19-11.56v-10.83h1.85v25.97h-2.31c-1.77-6.1-5.68-20.43-6.33-23.17h-.04c.16,3.12.29,7.7.29,12.4v10.77h-1.86Z" fill="#fff" stroke-width="0"/>
    <path d="M290.82,123.41h-4.23v-1.76h10.3v1.76h-4.17v24.21h-1.91v-24.21Z" fill="#fff" stroke-width="0"/>
    <path d="M306.7,134.55h-5.9v11.32h6.64l-.28,1.75h-8.26v-25.97h8.15v1.76h-6.25v9.39h5.9v1.75Z" fill="#fff" stroke-width="0"/>
    <path d="M322.29,135.97c0-5,.1-9.88.18-12.52h-.04c-.68,4.25-3.04,16.31-4.61,24.17h-1.96c-1.2-6.63-3.66-19.62-4.31-24.18h-.08c.08,3,.23,8.9.23,13.34v10.84h-1.84v-25.97h2.8c1.71,8.42,3.87,19.4,4.22,22.48h.04c.39-2.93,2.78-14.58,4.47-22.48h2.8v25.97h-1.9v-11.65Z" fill="#fff" stroke-width="0"/>
    <path d="M328.25,121.65h4.04c3.68,0,5.33,1.9,5.33,5.82v1.61c0,3.64-.92,6.55-5.5,6.55h-1.97v11.99h-1.91v-25.97ZM330.16,133.95h1.85c3.25,0,3.68-2.05,3.68-4.86v-1.47c0-2.25-.54-4.28-3.52-4.28h-2.01v10.62Z" fill="#fff" stroke-width="0"/>
    <path d="M350.72,127.67v13.75c0,4.28-1.72,6.52-5.22,6.52-3.88,0-5.06-2.67-5.06-6.51v-13.74c0-4.02,1.66-6.38,5.2-6.38,3.77,0,5.08,2.86,5.08,6.35ZM342.39,127.73v13.76c0,3.45,1.25,4.71,3.2,4.71s3.18-1.25,3.18-4.88v-13.57c0-3.24-1.17-4.68-3.21-4.68-2.17,0-3.17,1.4-3.17,4.66Z" fill="#fff" stroke-width="0"/>
    <path d="M356.21,135.14v12.48h-1.91v-25.97h3.84c3.87,0,5.5,1.75,5.5,5.78v1.33c0,3.21-.97,4.95-2.64,5.5,1.74.54,2.44,1.89,2.44,5.33,0,2.24-.04,6.35.27,8.04h-1.88c-.32-1.65-.27-6.09-.27-7.86,0-3.5-.52-4.62-3.26-4.62h-2.08ZM356.21,133.46h2.23c2.71,0,3.26-1.86,3.26-4.6v-1.34c0-2.62-.81-4.18-3.64-4.18h-1.86v10.12Z" fill="#fff" stroke-width="0"/>
    <path d="M369.21,138.41l-1.47,9.21h-1.92l4.32-25.97h2.75l4.51,25.97h-2l-1.55-9.21h-4.64ZM373.58,136.65c-1.13-6.62-1.83-11.2-2.05-13.33h-.09c-.08,1.92-1.12,7.95-1.94,13.33h4.08Z" fill="#fff" stroke-width="0"/>
    <path d="M379.85,121.65h1.91v24.24h6.53l-.28,1.73h-8.15v-25.97Z" fill="#fff" stroke-width="0"/>
  </g>
</svg>